<svg width="718" height="554" viewBox="0 0 718 554" fill="none" xmlns="http://www.w3.org/2000/svg">
<path opacity="0.6" d="M417.137 97.5683C371.111 95.8575 327.239 79.9655 285.411 62.5819C243.582 45.1983 202.124 25.9342 157.175 16.7228C128.276 10.7916 95.2255 9.95741 71.9448 26.528C49.5367 42.4695 42.2986 69.9906 38.4053 95.5252C35.477 114.74 33.7782 134.958 41.783 152.95C47.3553 165.434 57.244 175.932 64.0854 187.894C87.8817 229.511 71.0591 280.835 45.2665 321.505C33.1701 340.592 19.1369 358.754 9.80345 379.05C0.470013 399.346 -3.85298 422.597 4.31708 443.296C12.4144 463.798 31.7027 479.223 52.6037 490.06C95.0537 512.053 145.072 518.345 193.848 521.95C301.817 529.847 410.368 526.425 518.621 523.004C558.685 521.731 598.927 520.452 638.336 513.813C660.222 510.13 682.822 504.291 698.713 490.195C718.88 472.295 723.884 441.996 710.366 419.55C687.694 381.913 625.01 372.56 609.159 332.166C600.441 309.932 609.397 285.161 622.076 264.54C649.263 220.307 694.846 181.496 697.245 130.929C698.898 96.1968 676.985 61.4225 643.102 44.9862C607.593 27.744 558.348 29.9213 532.152 58.418C505.176 87.7772 457.769 99.0741 417.137 97.5683Z" fill="#587EEC"/>
<path d="M160.13 512.548C160.13 512.548 123.775 483.154 116.907 445.764C114.122 430.06 106.651 415.745 95.6156 404.966C90.3364 399.896 84.6346 395.352 78.5814 391.393" stroke="#9AB1F3" stroke-width="2" stroke-miterlimit="10"/>
<path d="M74.1329 367.838C77.319 372.447 78.76 391.98 78.76 391.98C78.76 391.98 61.7258 384.804 58.5331 380.202C57 377.99 56.3515 375.217 56.7302 372.493C57.1089 369.769 58.4838 367.318 60.5525 365.678C62.6211 364.039 65.2141 363.345 67.7609 363.75C70.3077 364.155 72.5998 365.626 74.1329 367.838Z" fill="#587EEC"/>
<path d="M104.685 383.164C105.015 388.883 96.3098 406.119 96.3098 406.119C96.3098 406.119 85.6477 390.184 85.3106 384.465C85.1824 381.738 86.0639 379.068 87.7641 377.031C89.4643 374.995 91.8462 373.757 94.3938 373.586C96.9414 373.415 99.4494 374.325 101.374 376.117C103.299 377.91 104.486 380.442 104.678 383.164H104.685Z" fill="#587EEC"/>
<path d="M134.298 427.221C131.892 432.339 116.232 442.519 116.232 442.519C116.232 442.519 114.56 423.007 116.966 417.889C118.151 415.482 120.171 413.669 122.593 412.839C125.015 412.009 127.645 412.23 129.917 413.453C132.188 414.676 133.92 416.804 134.739 419.379C135.559 421.954 135.4 424.77 134.298 427.221Z" fill="#587EEC"/>
<path d="M149.693 465.933C148.126 471.411 134.304 484.271 134.304 484.271C134.304 484.271 129.565 465.346 131.131 459.86C131.884 457.228 133.584 455.023 135.857 453.731C138.13 452.439 140.79 452.166 143.251 452.971C145.712 453.776 147.774 455.594 148.982 458.025C150.19 460.456 150.446 463.3 149.693 465.933Z" fill="#587EEC"/>
<path d="M80.5512 419.975C85.8393 420.738 102.556 412.665 102.556 412.665C102.556 412.665 88.4503 400.166 83.1358 399.403C80.585 399.036 78.0025 399.768 75.9565 401.438C73.9105 403.108 72.5685 405.579 72.2258 408.307C71.8831 411.035 72.5677 413.797 74.129 415.985C75.6903 418.173 78.0004 419.608 80.5512 419.975Z" fill="#587EEC"/>
<path d="M99.0924 465.014C104.381 464.045 118.044 451.002 118.044 451.002C118.044 451.002 101.082 443.593 95.8006 444.562C94.5361 444.784 93.3252 445.271 92.2377 445.996C91.1503 446.721 90.2078 447.669 89.4648 448.785C88.7218 449.902 88.1928 451.164 87.9085 452.501C87.6242 453.837 87.5902 455.22 87.8084 456.57C88.0267 457.921 88.4928 459.212 89.18 460.368C89.8671 461.525 90.7617 462.525 91.812 463.31C92.8623 464.095 94.0476 464.649 95.2995 464.942C96.5513 465.234 97.8449 465.259 99.1056 465.014H99.0924Z" fill="#587EEC"/>
<path d="M122.723 506.15C128.084 506.15 143.618 495.765 143.618 495.765C143.618 495.765 128.078 485.394 122.717 485.394C120.143 485.394 117.675 486.488 115.855 488.434C114.036 490.38 113.013 493.02 113.013 495.772C113.013 498.525 114.036 501.164 115.855 503.111C117.675 505.057 120.143 506.15 122.717 506.15H122.723Z" fill="#587EEC"/>
<path d="M513.307 258.312C513.307 258.312 535.715 215.86 569.492 203.63C583.676 198.593 595.95 188.772 604.473 175.643C608.47 169.365 611.92 162.709 614.778 155.756" stroke="#9AB1F3" stroke-width="2" stroke-miterlimit="10"/>
<path d="M635.983 147.98C632.136 151.967 614.229 156.096 614.229 156.096C614.229 156.096 618.625 137.079 622.472 133.085C624.329 131.225 626.794 130.22 629.337 130.286C631.88 130.351 634.298 131.482 636.069 133.434C637.84 135.387 638.824 138.005 638.808 140.726C638.792 143.446 637.777 146.051 635.983 147.98Z" fill="#587EEC"/>
<path d="M625.856 182.358C620.568 183.475 603.468 176.533 603.468 176.533C603.468 176.533 616.82 163.101 622.075 162.006C623.337 161.706 624.642 161.679 625.914 161.927C627.185 162.174 628.398 162.69 629.481 163.446C630.563 164.201 631.493 165.18 632.217 166.325C632.941 167.471 633.444 168.759 633.695 170.115C633.947 171.471 633.943 172.866 633.684 174.221C633.424 175.575 632.915 176.86 632.184 178C631.454 179.141 630.518 180.114 629.432 180.862C628.345 181.611 627.129 182.119 625.856 182.358Z" fill="#587EEC"/>
<path d="M588.999 219.6C583.935 217.727 572.427 202.485 572.427 202.485C572.427 202.485 590.274 198.116 595.351 199.99C596.571 200.422 597.698 201.11 598.667 202.012C599.636 202.915 600.428 204.014 600.997 205.246C601.566 206.479 601.9 207.82 601.98 209.191C602.061 210.563 601.885 211.938 601.465 213.237C601.044 214.535 600.386 215.732 599.53 216.756C598.673 217.781 597.635 218.613 596.476 219.205C595.316 219.797 594.058 220.137 592.774 220.205C591.491 220.273 590.207 220.067 588.999 219.6Z" fill="#587EEC"/>
<path d="M555.129 241.063C549.841 240.129 536.118 227.157 536.118 227.157C536.118 227.157 553.033 219.621 558.315 220.554C560.857 221.001 563.129 222.51 564.63 224.749C566.132 226.987 566.741 229.772 566.323 232.491C565.905 235.21 564.494 237.639 562.401 239.245C560.308 240.851 557.704 241.503 555.162 241.055L555.129 241.063Z" fill="#587EEC"/>
<path d="M588.536 161.666C588.53 167.4 598.253 184.034 598.253 184.034C598.253 184.034 607.963 167.421 607.963 161.695C607.997 160.309 607.771 158.931 607.299 157.641C606.827 156.351 606.117 155.174 605.213 154.182C604.309 153.189 603.228 152.401 602.035 151.862C600.841 151.323 599.559 151.046 598.263 151.046C596.967 151.046 595.685 151.323 594.491 151.862C593.297 152.401 592.217 153.189 591.313 154.182C590.408 155.174 589.699 156.351 589.227 157.641C588.755 158.931 588.529 160.309 588.563 161.695L588.536 161.666Z" fill="#587EEC"/>
<path d="M549.252 187.3C550.852 192.772 564.76 205.532 564.76 205.532C564.76 205.532 569.387 186.572 567.774 181.1C566.937 178.565 565.214 176.476 562.966 175.273C560.718 174.07 558.121 173.846 555.723 174.65C553.324 175.453 551.31 177.221 550.106 179.581C548.902 181.94 548.6 184.708 549.265 187.3H549.252Z" fill="#587EEC"/>
<path d="M514.305 217.818C515.019 223.474 526.705 238.581 526.705 238.581C526.705 238.581 534.247 220.731 533.534 215.054C533.392 213.679 532.995 212.348 532.365 211.139C531.735 209.93 530.886 208.868 529.866 208.016C528.847 207.163 527.679 206.537 526.43 206.175C525.182 205.812 523.878 205.721 522.596 205.905C521.313 206.089 520.078 206.546 518.964 207.248C517.849 207.95 516.876 208.884 516.104 209.994C515.332 211.104 514.774 212.368 514.465 213.712C514.156 215.056 514.102 216.452 514.305 217.818Z" fill="#587EEC"/>
<path opacity="0.25" d="M635.983 147.98C632.136 151.967 614.229 156.096 614.229 156.096C614.229 156.096 618.625 137.079 622.472 133.085C624.329 131.225 626.794 130.22 629.337 130.286C631.88 130.351 634.298 131.482 636.069 133.434C637.84 135.387 638.824 138.005 638.808 140.726C638.792 143.446 637.777 146.051 635.983 147.98Z" fill="black"/>
<path opacity="0.25" d="M625.856 182.358C620.568 183.475 603.468 176.533 603.468 176.533C603.468 176.533 616.82 163.101 622.075 162.006C623.337 161.706 624.642 161.679 625.914 161.927C627.185 162.174 628.398 162.69 629.481 163.446C630.563 164.201 631.493 165.18 632.217 166.325C632.941 167.471 633.444 168.759 633.695 170.115C633.947 171.471 633.943 172.866 633.684 174.221C633.424 175.575 632.915 176.86 632.184 178C631.454 179.141 630.518 180.114 629.432 180.862C628.345 181.611 627.129 182.119 625.856 182.358Z" fill="black"/>
<path opacity="0.25" d="M588.999 219.6C583.935 217.727 572.427 202.485 572.427 202.485C572.427 202.485 590.274 198.116 595.351 199.99C596.571 200.422 597.698 201.11 598.667 202.012C599.636 202.915 600.428 204.014 600.997 205.246C601.566 206.479 601.9 207.82 601.98 209.191C602.061 210.563 601.885 211.938 601.465 213.237C601.044 214.535 600.386 215.732 599.53 216.756C598.673 217.781 597.635 218.613 596.476 219.205C595.316 219.797 594.058 220.137 592.774 220.205C591.491 220.273 590.207 220.067 588.999 219.6Z" fill="black"/>
<path opacity="0.25" d="M555.129 241.063C549.841 240.129 536.118 227.157 536.118 227.157C536.118 227.157 553.033 219.621 558.315 220.554C560.857 221.001 563.129 222.51 564.63 224.749C566.132 226.987 566.741 229.772 566.323 232.491C565.905 235.21 564.494 237.639 562.401 239.245C560.308 240.851 557.704 241.503 555.162 241.055L555.129 241.063Z" fill="black"/>
<path opacity="0.25" d="M588.536 161.666C588.53 167.4 598.253 184.034 598.253 184.034C598.253 184.034 607.963 167.421 607.963 161.695C607.997 160.309 607.771 158.931 607.299 157.641C606.827 156.351 606.117 155.174 605.213 154.182C604.309 153.189 603.228 152.401 602.035 151.862C600.841 151.323 599.559 151.046 598.263 151.046C596.967 151.046 595.685 151.323 594.491 151.862C593.297 152.401 592.217 153.189 591.313 154.182C590.408 155.174 589.699 156.351 589.227 157.641C588.755 158.931 588.529 160.309 588.563 161.695L588.536 161.666Z" fill="black"/>
<path opacity="0.25" d="M549.252 187.3C550.852 192.772 564.76 205.532 564.76 205.532C564.76 205.532 569.387 186.572 567.774 181.1C566.937 178.565 565.214 176.476 562.966 175.273C560.718 174.07 558.121 173.846 555.723 174.65C553.324 175.453 551.31 177.221 550.106 179.581C548.902 181.94 548.6 184.708 549.265 187.3H549.252Z" fill="black"/>
<path opacity="0.25" d="M514.305 217.818C515.019 223.474 526.705 238.581 526.705 238.581C526.705 238.581 534.247 220.731 533.534 215.054C533.392 213.679 532.995 212.348 532.365 211.139C531.735 209.93 530.886 208.868 529.866 208.016C528.847 207.163 527.679 206.537 526.43 206.175C525.182 205.812 523.878 205.721 522.596 205.905C521.313 206.089 520.078 206.546 518.964 207.248C517.849 207.95 516.876 208.884 516.104 209.994C515.332 211.104 514.774 212.368 514.465 213.712C514.156 215.056 514.102 216.452 514.305 217.818Z" fill="black"/>
<path d="M514.596 257.471C514.596 257.471 518.998 208.946 545.213 183.143C556.271 172.389 563.771 158.092 566.59 142.395C567.873 134.933 568.513 127.361 568.501 119.773" stroke="#9AB1F3" stroke-width="2" stroke-miterlimit="10"/>
<path d="M584.933 103.4C582.95 108.717 568.117 120.254 568.117 120.254C568.117 120.254 564.931 100.962 566.934 95.6454C567.898 93.0927 569.771 91.0542 572.141 89.9783C574.51 88.9025 577.183 88.8774 579.569 89.9086C581.956 90.9398 583.862 92.9428 584.868 95.477C585.874 98.0112 585.898 100.869 584.933 103.422V103.4Z" fill="#587EEC"/>
<path d="M588.708 139.256C584.325 142.551 566.035 143.632 566.035 143.632C566.035 143.632 573.161 125.577 577.543 122.283C578.583 121.451 579.768 120.851 581.028 120.517C582.288 120.184 583.598 120.124 584.88 120.342C586.162 120.56 587.39 121.051 588.492 121.785C589.594 122.52 590.546 123.483 591.293 124.619C592.04 125.754 592.567 127.038 592.842 128.395C593.116 129.752 593.134 131.154 592.893 132.519C592.652 133.883 592.157 135.181 591.438 136.338C590.719 137.494 589.791 138.484 588.708 139.249V139.256Z" fill="#587EEC"/>
<path d="M569.103 189.293C563.762 189.774 547.461 180.81 547.461 180.81C547.461 180.81 562.136 169.075 567.477 168.594C570.041 168.364 572.587 169.232 574.553 171.009C576.519 172.785 577.744 175.324 577.96 178.067C578.176 180.81 577.364 183.532 575.703 185.635C574.041 187.738 571.667 189.049 569.103 189.279V189.293Z" fill="#587EEC"/>
<path d="M546.291 223.573C541.102 224.987 523.625 219.14 523.625 219.14C523.625 219.14 536.231 204.924 541.419 203.482C543.911 202.791 546.556 203.186 548.775 204.582C550.993 205.977 552.602 208.258 553.248 210.922C553.894 213.586 553.524 216.416 552.22 218.788C550.915 221.161 548.782 222.882 546.291 223.573Z" fill="#587EEC"/>
<path d="M546.754 136.513C548.922 141.752 564.086 152.773 564.086 152.773C564.086 152.773 566.664 133.375 564.495 128.136C563.415 125.685 561.481 123.784 559.107 122.837C556.733 121.891 554.108 121.975 551.791 123.072C549.474 124.168 547.65 126.191 546.709 128.706C545.768 131.222 545.784 134.031 546.754 136.535V136.513Z" fill="#587EEC"/>
<path d="M520.551 176.964C524.088 181.27 541.631 186.911 541.631 186.911C541.631 186.911 538.67 167.576 535.133 163.271C534.299 162.225 533.278 161.367 532.13 160.747C530.983 160.126 529.732 159.756 528.449 159.657C527.167 159.559 525.879 159.734 524.66 160.172C523.441 160.61 522.316 161.303 521.35 162.21C520.384 163.118 519.596 164.221 519.032 165.457C518.468 166.693 518.14 168.036 518.065 169.409C517.991 170.781 518.172 172.156 518.599 173.453C519.026 174.751 519.69 175.944 520.551 176.964Z" fill="#587EEC"/>
<path d="M500.133 220.031C502.936 224.909 519.335 233.64 519.335 233.64C519.335 233.64 519.474 214.05 516.691 209.166C515.306 206.91 513.154 205.32 510.691 204.734C508.228 204.147 505.648 204.609 503.499 206.022C501.349 207.436 499.799 209.689 499.177 212.304C498.555 214.919 498.909 217.691 500.166 220.031H500.133Z" fill="#587EEC"/>
<path d="M480.884 67.4385C481.981 63.1333 483.303 58.8068 484.229 54.445C483.118 58.8068 481.79 63.1474 480.884 67.4385Z" fill="url(#paint0_linear_22_34)"/>
<path d="M475.966 108.908C475.874 108.738 475.808 108.568 475.735 108.413C475.735 108.342 475.669 108.285 475.642 108.215C475.498 108.287 475.351 108.351 475.2 108.406C474.909 108.526 474.611 108.639 474.307 108.731C474.003 108.823 473.878 108.872 473.646 108.929C473.454 108.999 473.258 109.054 473.058 109.091L473.111 109.219C473.355 109.162 473.593 109.113 473.838 109.042L473.904 109.918C474.182 109.918 474.439 109.876 474.691 109.876C474.81 109.869 474.929 109.869 475.048 109.876C475.563 109.876 476.013 109.876 476.37 109.876C476.231 109.558 476.085 109.226 475.966 108.908ZM610.151 337.34C607.044 332.866 600.844 284.836 600.844 284.836C600.844 284.836 588.648 250.684 591.973 237.054C595.298 223.424 582.891 188.551 582.891 188.551C582.891 188.551 574.695 184.741 574.252 179.085C574.252 179.085 540.785 167.774 539.218 159.291C537.949 152.335 517.193 147.344 509.737 145.767C507.463 135.955 505.176 126.8 503.491 121.802C503.035 120.247 502.605 118.904 502.208 117.843C499.359 110.067 490.555 109.36 484.169 109.982C483.893 108.657 483.379 107.401 482.656 106.285C482.55 105.901 482.341 105.559 482.054 105.302C481.917 105.177 481.771 105.064 481.618 104.963C481.502 104.734 481.35 104.528 481.168 104.355C480.987 104.18 480.787 104.028 480.574 103.902C480.42 103.814 480.261 103.736 480.098 103.669C479.715 103.513 479.318 103.397 478.914 103.323C478.444 103.219 477.967 103.153 477.487 103.125C478.653 102.579 479.694 101.766 480.534 100.742C481.106 100.024 481.531 99.1862 481.783 98.2823C481.993 97.5305 482.086 96.7474 482.061 95.9635C481.889 96.2865 481.69 96.5919 481.466 96.8755C481.744 93.7437 480.197 90.5625 479.311 87.4449C478.238 83.3862 478.039 79.1202 478.729 74.9674C479.615 68.704 481.81 62.3698 483.297 55.9932C483.301 55.958 483.301 55.9224 483.297 55.8872C484.077 52.7204 484.56 49.4784 484.738 46.2092C484.996 39.6135 483.416 33.0319 480.878 27.0229C478.624 21.6996 475.299 16.4612 470.209 14.298C466.428 12.665 462.191 12.9265 458.119 12.6579C448.984 12.0499 440.272 8.61422 431.586 5.48955C422.901 2.36489 413.964 -0.477007 404.822 0.0673356C395.68 0.611678 386.274 5.32695 382.103 13.9799C380.781 16.6804 380.021 19.6849 378.441 22.2228C375.48 27.0088 370.179 29.4053 365.756 32.7067C361.334 36.0081 357.441 40.6951 355.841 46.287C354.968 49.2996 354.845 52.504 355.484 55.5832C355.628 56.2786 355.814 56.9633 356.04 57.6333C356.667 59.5012 357.646 61.2119 358.915 62.6596C359.872 63.7297 360.973 64.6421 362.18 65.3672C363.697 66.2662 365.32 66.9416 367.006 67.3749C366.946 67.587 366.887 67.8132 366.821 68.0324C366.715 68.3929 366.622 68.7393 366.523 69.1281C366.305 69.9977 366.1 70.8813 365.928 71.7721C365.921 71.8355 365.921 71.8995 365.928 71.963C365.116 75.984 364.709 80.0863 364.712 84.2001C364.711 86.1456 364.803 88.0899 364.99 90.0252C367.634 118.713 389.777 141.342 417.137 142.812C418.075 142.862 419.02 142.89 419.979 142.89C420.415 142.89 420.845 142.89 421.301 142.89C421.731 143.498 422.154 144.12 422.557 144.728C422.96 145.336 423.33 145.958 423.681 146.566L422.722 145.506L421.764 144.566C421.504 144.947 421.214 145.304 420.898 145.633C420.273 145.398 419.635 145.204 418.987 145.053C416.244 144.403 412.067 144.163 406.567 145.937C401.51 147.556 395.33 150.886 388.099 157.213L352.86 179.835L333.797 192.234L326.929 210.191C326.929 210.191 321.766 231.526 316.022 255.972C315.797 256.043 315.579 256.113 315.361 256.198C314.896 256.141 314.428 256.113 313.96 256.113C310.627 256.105 307.421 257.478 305.015 259.945C302.609 262.411 301.19 265.779 301.057 269.34C289.635 284.186 288.987 299.031 291.671 305.846C291.914 306.485 292.219 307.094 292.583 307.663C294.341 310.378 297.626 317.377 300.958 324.835C300.872 325.45 300.819 325.966 300.793 326.355C300.787 326.482 300.787 326.609 300.793 326.736C300.793 326.736 302.776 358.768 296.165 367.951C294.718 369.952 294.936 372.581 296.165 375.494C300.594 385.971 318.104 399.961 318.104 399.961C318.104 399.961 339.105 399.841 350.804 398.477C350.771 399.735 350.745 400.986 350.719 402.209C350.454 414.566 350.454 424.923 350.454 424.923L350.018 437.881C350.018 437.881 346.052 465.19 344.069 472.719C342.819 477.441 344.26 521.166 345.516 553.31H552.425C554.858 534.293 551.427 476.515 551.427 476.515C551.427 476.515 548.168 461.578 548.049 448.556C548.043 448.542 548.039 448.526 548.039 448.51C548.039 448.494 548.043 448.478 548.049 448.464C548.049 447.326 548.049 446.216 548.089 445.127L549.589 445.071L552.286 444.972H552.531C552.531 444.972 552.597 444.703 552.749 444.265C553.106 443.173 553.592 442.135 554.197 441.176C555.347 439.359 557.145 437.577 559.848 437.457C561.342 437.393 563.656 436.1 566.267 434.191C566.284 434.195 566.302 434.195 566.32 434.191C573.346 429.108 582.633 419.727 584.887 418.186C587.987 416.065 602.834 401.926 602.834 401.926C602.834 401.926 605.048 398.929 607.408 395.316L607.494 395.189C610.429 390.665 613.549 385.257 612.782 383.553C611.46 380.499 613.668 373.196 613.668 373.196C620.562 359.701 613.258 341.815 610.151 337.34ZM482.332 119.9C482.395 120.111 482.435 120.33 482.451 120.551C482.286 120.318 482.12 120.07 481.955 119.844L481.796 119.618L481.684 119.448L481.935 119.08C481.935 119.08 481.935 119.08 481.935 119.13C482.11 119.359 482.244 119.62 482.332 119.9ZM480.111 113.637C479.39 113.792 478.822 113.934 478.452 114.04C477.982 113.149 477.533 112.258 477.13 111.354C478.189 112.011 479.188 112.776 480.111 113.637ZM478.868 114.754C478.866 114.74 478.866 114.726 478.868 114.712L478.921 114.754C479.192 114.945 479.456 115.129 479.701 115.319C479.919 115.489 480.117 115.652 480.316 115.821C480.184 116.069 480.038 116.323 479.893 116.528C479.661 116.14 479.443 115.765 479.232 115.376C479.1 115.221 478.981 115.008 478.868 114.754ZM474.902 106.03C476.179 105.896 477.466 105.896 478.743 106.03C478.921 106.03 479.08 106.066 479.238 106.094C479.597 106.153 479.949 106.25 480.289 106.384C481.071 107.553 481.551 108.92 481.684 110.35L481.327 110.406L480.977 110.477C480.316 110.597 479.655 110.717 479.139 110.83L478.478 110.979C477.599 111.184 477.09 111.339 477.07 111.346C476.984 111.156 476.898 110.979 476.806 110.795C476.66 110.491 476.508 110.18 476.376 109.876C476.244 109.572 476.072 109.226 475.933 108.908C475.841 108.738 475.775 108.568 475.702 108.413C475.702 108.342 475.636 108.285 475.609 108.215C475.571 108.14 475.538 108.062 475.51 107.981C475.107 107.105 474.737 106.228 474.38 105.366C474.34 105.281 474.307 105.189 474.274 105.104L474.777 105.069V105.253L474.902 106.03ZM317.192 544.572C317.139 534.046 316.425 522.657 314.442 511.968C313.596 507.423 312.724 502.877 311.838 498.409C311.613 497.292 311.395 496.19 311.177 495.087L309.141 495.376H308.956C303.404 467.375 297.6 442.703 297.6 442.703C297.6 442.703 286.072 395.628 287.407 391.874C287.579 391.386 287.361 390.071 286.872 388.141C284.082 377.438 272.435 347.945 268.363 337.864C268.363 337.821 268.33 337.772 268.317 337.736C267.656 336.047 267.18 334.909 267.035 334.576L267.993 319.533L268.046 318.628L268.172 316.705L268.119 316.655L268.172 315.765C268.172 315.765 258.111 306.942 241.07 300.573C240.409 300.318 239.709 300.071 239.015 299.83C239.867 293.744 240.998 286.872 242.472 280.177C242.611 279.506 242.763 278.855 242.921 278.198C243.06 277.541 243.219 276.904 243.377 276.261C243.629 275.215 243.9 274.183 244.177 273.165C245.096 272.854 246.002 272.507 246.894 272.14L247.238 271.998C258.231 267.423 267.302 258.743 272.771 247.565C278.239 236.387 279.736 223.469 276.983 211.202C275.413 204.244 272.515 197.709 268.469 192.008C268.165 191.57 267.841 191.132 267.517 190.7C267.193 190.269 266.803 189.788 266.44 189.35C268.35 184.705 270.604 180.287 270.789 175.77C270.822 175.198 270.822 174.624 270.789 174.052V173.981C270.545 171.076 269.342 168.135 266.539 165.046C262.447 160.514 256.624 158.216 250.8 157.114C244.977 156.011 239.041 155.983 233.185 155.24C223.474 153.996 214.015 150.794 204.305 149.811C192.345 148.626 180.303 150.82 169.384 156.173C162.159 159.708 154.842 165.887 154.406 174.363C154.049 181.369 158.61 188.085 157.459 195.006C156.316 201.806 149.838 207.158 150.407 214.036C150.625 216.723 151.914 219.126 153.527 221.268C154.082 221.975 154.67 222.682 155.278 223.389C157.631 226.054 160.223 228.613 161.538 231.971C161.591 232.113 161.644 232.254 161.69 232.396C162.807 235.711 162.305 239.903 159.542 241.805C159.557 241.818 159.568 241.835 159.575 241.854C159.614 241.911 159.654 241.953 159.687 242.01C159.691 241.999 159.691 241.986 159.687 241.975C160.667 243.217 161.987 244.097 163.461 244.491L164.023 244.675C163.567 245.205 163.138 245.757 162.701 246.336L162.417 246.739C161.689 247.787 161.026 248.885 160.434 250.027C160.097 250.663 159.773 251.299 159.502 251.935C158.596 253.875 157.94 255.937 157.552 258.064C156.845 262.744 157.843 267.622 156.772 272.203C155.45 277.859 151.266 282.199 148.906 287.452C144.438 297.349 146.969 308.964 147.868 319.893C149.091 334.739 147.108 349.648 145.132 364.395C144.083 372.237 143.034 380.087 141.985 387.943C139.341 407.662 136.697 427.381 134.053 447.1C133.088 454.325 131.945 461.945 127.443 467.523H127.489C127.489 467.523 127.489 467.566 127.443 467.58C128.794 468.211 130.232 468.608 131.7 468.753C137.576 469.382 143.803 466.343 149.091 463.02C153.279 460.432 157.245 457.454 160.943 454.12C160.401 456.24 159.819 458.552 159.198 461.041C159.2 461.064 159.2 461.088 159.198 461.111C151.735 491.51 139.731 547.238 139.731 547.238C139.731 547.238 138.641 549.662 137.226 553.275H323.63C321.449 550.447 319.42 547.739 317.833 545.555L317.192 544.572ZM179.174 263.494C179.22 263.409 179.253 263.331 179.299 263.253C179.299 263.48 179.299 263.699 179.299 263.911C179.299 264.123 179.299 264.314 179.299 264.512C179.299 264.71 179.299 264.688 179.299 264.787C179.299 264.886 179.299 264.787 179.299 264.787C179.299 265.077 179.24 265.367 179.193 265.657C179.193 265.657 179.193 265.692 179.193 265.721L179.854 265.982L180.621 266.321C185.151 268.235 189.739 269.967 194.383 271.517C194.859 271.68 195.342 271.836 195.824 271.984L195.924 272.861C196.043 273.758 196.155 274.67 196.261 275.582C196.261 275.582 196.261 275.625 196.261 275.653C196.558 278.177 196.849 280.694 197.107 283.154C197.107 283.154 184.971 278.205 185.123 285.72C185.116 285.854 185.116 285.989 185.123 286.123C185.109 286.302 185.109 286.481 185.123 286.66C185.235 292.514 186.947 295.985 187.291 297.766C187.27 297.84 187.234 297.908 187.185 297.964C186.892 298.647 186.791 299.406 186.894 300.148C186.883 301.413 186.976 302.676 187.172 303.924C186.815 304.157 186.465 304.39 186.114 304.63C185.85 304.807 185.599 305.005 185.341 305.203C183.719 299.187 181.598 293.339 179.002 287.728C177.184 283.726 175.141 279.555 175.161 275.165C175.161 274.883 175.161 274.593 175.194 274.303C175.268 273.03 175.495 271.774 175.869 270.563C176.021 270.104 176.186 269.651 176.371 269.206C176.803 268.147 177.286 267.114 177.819 266.109C178.162 265.445 178.526 264.787 178.876 264.123C178.989 263.925 179.094 263.72 179.2 263.522L179.174 263.494ZM475.966 108.908C475.874 108.738 475.808 108.568 475.735 108.413C475.735 108.342 475.669 108.285 475.642 108.215C475.498 108.287 475.351 108.351 475.2 108.406C474.909 108.526 474.611 108.639 474.307 108.731C474.003 108.823 473.878 108.872 473.646 108.929L473.058 109.091L473.111 109.219C473.355 109.162 473.593 109.113 473.838 109.042L473.904 109.918C474.182 109.918 474.439 109.876 474.691 109.876H475.048C475.563 109.876 476.013 109.876 476.37 109.876C476.231 109.558 476.085 109.226 475.966 108.908Z" fill="url(#paint1_linear_22_34)"/>
<path d="M331.536 212.743L327.57 214.616C327.57 214.616 301.718 322.028 301.718 330.709C301.718 339.391 356.535 387.696 356.535 387.696L365.089 325.952C365.089 325.952 352.807 184.359 331.536 212.743Z" fill="#E8F5FF"/>
<path d="M451.78 178.576L428.876 165.795C427.593 159.946 425.317 154.399 422.16 149.429C418.809 144.254 414.354 139.171 408.801 136.52C394.768 129.79 468.16 94.4647 468.16 94.4647C469.316 98.7083 470.677 102.885 472.238 106.978C476.019 116.959 482.292 129.868 490.376 133.544C504.119 139.801 451.78 178.576 451.78 178.576Z" fill="#FFB0B1"/>
<path opacity="0.1" d="M472.238 106.978C469.102 118.773 462.581 129.216 453.595 136.834C444.61 144.451 433.614 148.857 422.16 149.429C418.809 144.254 414.354 139.171 408.801 136.52C394.768 129.79 468.16 94.4647 468.16 94.4647C469.316 98.7083 470.677 102.885 472.238 106.978Z" fill="black"/>
<path d="M474.301 89.1415C474.303 100.71 471.098 112.019 465.091 121.639C459.083 131.258 450.543 138.757 440.55 143.185C430.558 147.614 419.562 148.774 408.953 146.518C398.344 144.262 388.598 138.693 380.949 130.513C373.301 122.334 368.091 111.912 365.981 100.566C363.871 89.2206 364.954 77.4602 369.094 66.7728C373.233 56.0854 380.243 46.9509 389.237 40.5247C398.231 34.0985 408.805 30.6693 419.622 30.6707C426.811 30.6351 433.936 32.1232 440.584 35.0489C447.233 37.9747 453.274 42.2801 458.357 47.7167C463.441 53.1532 467.468 59.613 470.204 66.7232C472.941 73.8333 474.333 81.4527 474.301 89.1415Z" fill="#FFB0B1"/>
<path d="M482.193 171.069L467.281 208.282L454.127 232.982H412.02L399.739 199.212L404.716 164.19H436.874L457.637 162.939L464.65 160.436L469.171 163.179L482.193 171.069Z" fill="#575A89"/>
<path opacity="0.1" d="M477.057 121.463C477.057 121.463 486.357 123.583 478.029 130.886C469.7 138.189 440.966 161.412 440.966 161.412C440.966 161.412 451.06 171.026 448.971 182.288L482.411 162.352L488.36 130.455C488.36 130.455 489.028 120.869 477.057 121.463Z" fill="black"/>
<path opacity="0.1" d="M447.543 161.412L426.272 165.166C426.272 165.166 430.661 182.521 428.466 187.449C428.4 187.602 428.345 187.76 428.301 187.922L419.622 213.011L426.126 232.714L448.64 199.877L440.966 187.449C440.966 187.449 449.076 175.954 453.902 171.967C458.727 167.979 447.543 161.412 447.543 161.412Z" fill="black"/>
<path d="M447.543 160.443L426.272 164.19C426.272 164.19 430.661 181.545 428.466 186.473C428.4 186.626 428.345 186.784 428.301 186.946L419.622 212.036L426.126 231.738L448.64 198.88L440.966 186.452C440.966 186.452 449.076 174.957 453.902 170.97C458.727 166.982 447.543 160.443 447.543 160.443Z" fill="#DCE6F2"/>
<path d="M477.949 119.589C477.949 119.589 487.25 121.71 478.914 129.013C470.579 136.315 440.966 161.412 440.966 161.412C440.966 161.412 451.932 169.153 449.85 180.407L483.29 160.479L489.239 128.582C489.239 128.582 489.9 118.995 477.949 119.589Z" fill="#575A89"/>
<path opacity="0.1" d="M423.621 151.642C423.621 151.642 425.651 155.7 434.607 163.017C434.607 163.017 419.695 171.5 425.399 183.426L402.588 177.063L399.078 165.335L423.621 151.642Z" fill="black"/>
<path d="M422.742 150.709C422.742 150.709 424.771 154.767 433.728 162.084C433.728 162.084 418.815 170.524 424.52 182.486L401.715 176.123L398.205 164.402L422.742 150.709Z" fill="#575A89"/>
<path opacity="0.1" d="M482.193 171.069L467.281 208.282L454.153 232.982H412.02L399.739 199.212L404.71 164.19H413.653C413.508 172.362 416.297 181.963 416.119 185.533C415.815 191.4 424.302 223.057 424.302 223.057C424.302 223.057 442.063 192.333 449.076 189.597C453.485 187.88 462.825 173.585 469.165 163.179L482.193 171.069Z" fill="black"/>
<path d="M540.937 366.898L539.423 368.934C539.423 368.934 550.389 427.8 547.355 441.169C546.839 443.578 546.545 446.036 546.476 448.507V448.613C545.941 462.214 549.781 479.866 549.781 479.866C549.781 479.866 552.848 531.897 551.103 553.296H345.781C344.578 521.653 343.282 480.658 344.459 476.112C346.442 468.612 350.408 441.402 350.408 441.402L350.844 428.507C350.844 428.507 350.844 416.044 351.201 402.16C351.353 395.917 351.578 389.364 351.902 383.553C352.318 376.243 352.9 370.086 353.7 367.06C354.192 364.767 354.476 362.428 354.546 360.076C354.546 359.857 354.546 359.63 354.585 359.404C354.585 358.697 354.651 357.934 354.678 357.149C354.678 356.93 354.678 356.711 354.678 356.442C354.803 351.889 354.757 346.488 354.618 340.889C354.618 340.585 354.618 340.274 354.618 339.963C354.506 335.764 354.341 331.48 354.156 327.408C353.581 314.683 352.834 303.924 352.834 303.924L327.616 214.567L334.411 196.667L353.27 184.31L388.138 161.794C405.146 146.842 416.343 148.638 420.613 150.278C421.028 150.429 421.434 150.606 421.83 150.808C421.962 150.879 422.068 150.935 422.167 150.999C422.303 151.067 422.433 151.148 422.557 151.239C421.388 151.841 420.372 152.736 419.595 153.848C418.721 155.113 418.098 156.557 417.765 158.089C417.541 159.039 417.384 160.006 417.295 160.981C417.209 162.006 417.176 163.066 417.176 164.134C417.223 166.475 417.411 168.81 417.738 171.125C417.738 171.168 417.738 171.224 417.738 171.281C417.956 172.935 418.227 174.554 418.492 176.074C418.489 176.1 418.489 176.126 418.492 176.152C418.796 177.926 419.1 179.566 419.305 180.98C419.344 181.234 419.377 181.468 419.41 181.687C419.556 182.621 419.625 183.567 419.615 184.515C419.69 186.802 419.978 189.075 420.475 191.301C420.647 192.234 420.845 193.231 421.063 194.27C421.36 195.684 421.684 197.225 422.035 198.795C422.226 199.657 422.431 200.548 422.643 201.432C422.722 201.785 422.808 202.139 422.887 202.499L423.02 203.058C424.428 209.045 425.954 215.005 426.893 218.61C427.448 220.731 427.799 222.039 427.799 222.039C427.799 222.039 437.753 204.825 445.699 195.027C445.818 194.885 445.923 194.751 446.036 194.624C446.822 193.655 447.596 192.772 448.336 191.994C449.956 190.269 451.41 189.039 452.58 188.587C452.829 188.489 453.07 188.368 453.3 188.226C456.553 186.254 461.801 179.092 466.712 171.592C467.195 170.885 467.664 170.114 468.14 169.386C469.231 167.704 470.288 166.014 471.286 164.395C472.053 163.158 472.787 161.956 473.481 160.811C476.786 155.311 479.113 151.211 479.113 151.211L483.7 150.992L484.5 150.949H485.035L505.864 149.917C505.864 149.917 506.763 150.08 508.243 150.398C508.323 150.398 508.402 150.398 508.488 150.454C515.878 152.024 536.409 156.994 537.665 163.886C539.198 172.327 572.315 183.589 572.315 183.589C572.751 189.244 580.862 192.97 580.862 192.97C580.862 192.97 593.143 227.68 589.858 241.282C586.612 254.714 598.306 287.94 598.616 288.873L596.376 291.899L540.937 366.898Z" fill="#E8F5FF"/>
<path opacity="0.1" d="M477.05 118.996C477.05 118.996 497.323 112.845 501.931 125.506C506.538 138.168 516.843 189.301 516.843 189.301C516.843 189.301 490.085 194.694 483.072 189.301C478.958 186.099 473.867 184.675 468.814 185.313L453.684 196.335L449.215 194.921C449.215 194.921 473.421 156.435 478.683 143.357C483.945 130.278 485.723 124.432 477.05 118.996Z" fill="black"/>
<path d="M476.171 116.168C476.171 116.168 496.458 110.017 501.085 122.679C505.712 135.34 515.997 186.473 515.997 186.473C515.997 186.473 489.246 191.867 482.226 186.473C478.115 183.271 473.025 181.847 467.975 182.486L452.831 193.507L448.363 192.093C448.363 192.093 472.569 153.607 477.83 140.529C483.092 127.451 484.844 121.618 476.171 116.168Z" fill="#E8F5FF"/>
<path opacity="0.1" d="M340.09 320.155C340.09 320.155 355.22 324.142 358.076 333.29C360.931 342.437 346.891 342.671 346.891 342.671C346.891 342.671 338.338 326.489 340.09 320.155Z" fill="black"/>
<path opacity="0.1" d="M396.447 387.696C396.447 387.696 359.391 468.845 367.944 476.586C376.498 484.327 396.447 387.696 396.447 387.696Z" fill="black"/>
<path opacity="0.1" d="M447.543 327.896C447.543 327.896 477.149 406.719 471.227 418.893C465.304 431.066 483.945 418.893 483.945 418.893L447.543 327.896Z" fill="black"/>
<path d="M488.77 405.758C488.77 405.758 388.773 410.919 417.943 444.222C447.114 477.526 506.975 445.636 506.975 445.636L488.77 405.758Z" fill="#FFB0B1"/>
<path opacity="0.1" d="M474.301 89.1415C474.31 96.8119 472.901 104.409 470.156 111.495C469.237 111.608 468.319 111.679 467.433 111.721C466.111 108.618 466.818 105.033 466.844 101.619C466.871 98.2044 465.694 94.189 462.621 93.27C456.493 91.4249 452.263 103.676 446.221 101.463C441.594 99.7809 442.804 92.2732 440.14 87.9397C438.031 84.511 433.807 83.5425 430.522 81.3934C423.535 76.8054 423.747 69.4674 420.501 62.5252C417.104 55.2509 409.925 57.3999 403.692 61.6911C398.959 64.9571 394.874 69.3331 389.811 71.9346C385.428 74.1968 380.504 75.0169 375.645 75.137C372.654 75.261 369.662 74.9229 366.761 74.1332C370.173 60.4143 378.134 48.4909 389.16 40.5866C400.186 32.6823 413.523 29.3368 426.685 31.1738C439.847 33.0108 451.935 39.905 460.695 50.5707C469.455 61.2365 474.288 74.9455 474.294 89.1415H474.301Z" fill="black"/>
<path d="M403.712 59.8178C398.972 63.0838 394.894 67.4527 389.831 70.0684C385.448 72.3235 380.524 73.1436 375.665 73.2637C369.716 73.4051 363.311 72.2882 359.246 67.6931C355.511 63.4514 354.619 56.9264 356.198 51.3628C357.778 45.7992 361.566 41.1829 366.014 37.8391C370.463 34.4952 375.625 32.1836 378.574 27.3976C380.133 24.8667 380.887 21.8835 382.183 19.19C386.327 10.5725 395.647 5.90666 404.657 5.32697C413.666 4.74728 422.597 7.61745 431.177 10.728C439.756 13.8385 448.402 17.2601 457.458 17.9034C461.49 18.172 465.681 17.9034 469.423 19.5364C474.453 21.7209 477.751 26.9451 479.999 32.2613C482.517 38.2562 484.084 44.8024 483.819 51.3487C483.264 65.3248 474.631 79.0394 478.425 92.4288C479.43 95.9989 481.314 99.6608 480.309 103.231C478.842 108.441 472.556 109.629 467.473 109.876C466.151 106.773 466.858 103.181 466.884 99.7739C466.911 96.3665 465.734 92.344 462.667 91.425C456.533 89.594 452.302 101.824 446.274 99.6184C441.68 97.9288 442.87 90.4282 440.199 86.0947C438.091 82.659 433.86 81.6975 430.582 79.5484C423.595 74.9604 423.806 67.6224 420.561 60.6802C417.137 53.3705 409.952 55.5196 403.712 59.8178Z" fill="#575A89"/>
<path d="M306.748 328.829L301.705 330.709C301.705 330.709 303.688 362.606 297.078 371.754C290.467 380.902 318.785 403.644 318.785 403.644C318.785 403.644 357.599 403.411 358.697 400.11C359.794 396.808 356.714 341.009 356.714 341.009C356.714 341.009 335.879 332.328 337.63 318.494C337.63 318.494 331.272 351.09 321.846 349.684C312.42 348.277 301.718 339.857 306.748 328.829Z" fill="#E8F5FF"/>
<path opacity="0.1" d="M323.571 359.552C330.92 359.552 336.877 353.726 336.877 346.538C336.877 339.35 330.92 333.523 323.571 333.523C316.222 333.523 310.265 339.35 310.265 346.538C310.265 353.726 316.222 359.552 323.571 359.552Z" fill="black"/>
<path d="M338.12 329.769C338.12 329.769 335.476 243.466 312.46 262.695C289.443 281.924 289.218 304.92 293.601 311.714C297.983 318.508 312.036 352.518 312.036 352.518C314.235 353.881 316.703 354.667 319.24 354.812C321.777 354.958 324.311 354.458 326.632 353.355C328.954 352.251 330.998 350.575 332.597 348.463C334.197 346.352 335.305 343.865 335.833 341.207L338.12 329.769Z" fill="#FFB0B1"/>
<path opacity="0.1" d="M481.697 111.163C481.59 110.783 481.383 110.445 481.102 110.187C479.965 109.077 477.52 108.688 473.831 109.028L473.983 110.894C478.901 110.442 479.873 111.488 479.998 111.665V111.841L480.15 112.075C480.764 112.956 481.198 113.965 481.426 115.036C481.653 116.107 481.669 117.217 481.472 118.296C480.395 124.057 473.778 128.645 473.712 128.695L473.554 128.794L473.454 128.956C470.599 133.488 454.45 146.276 450.227 149.585L449.856 149.132C447.966 150.886 431.348 166.445 430.449 172.405C429.868 176.144 425.928 177.594 424.5 177.997C422.993 176.774 418.102 172.61 415.557 167.944C413.17 163.554 422.775 154.986 423.621 151.642L422.299 150.193C422.16 150.73 409.826 163.059 413.256 169.358C416.006 174.412 421.03 178.739 422.788 180.167C422.226 185.624 418.73 217.67 413.356 225.262C406.679 234.7 401.067 282.263 401.689 298.869C402.237 313.623 398.635 341.49 386.605 353.459C384.522 355.622 382.009 357.253 379.254 358.233C376.499 359.212 373.573 359.513 370.694 359.114H370.549H370.403C370.231 359.114 352.781 361.023 338.12 347.803C326.122 337.008 319.327 319.391 317.913 295.426H317.622L317.503 288.449C320.756 287.906 323.685 286.035 325.676 283.231C327.666 280.426 328.563 276.906 328.177 273.409C327.792 269.912 326.154 266.711 323.608 264.479C321.062 262.247 317.806 261.156 314.524 261.438C311.242 261.719 308.19 263.35 306.009 265.987C303.828 268.625 302.688 272.064 302.828 275.582C302.968 279.099 304.377 282.422 306.76 284.852C309.143 287.282 312.313 288.629 315.606 288.611H315.751L315.87 295.546L315.288 295.589C316.743 320.332 323.882 338.634 336.441 349.938C345.987 358.398 358.18 362.666 370.555 361.878C371.433 361.981 372.316 362.033 373.199 362.034C378.872 362.065 384.33 359.717 388.403 355.495C401.074 342.876 404.928 313.983 404.326 298.728C403.665 281.132 409.555 235.28 415.464 226.931C421.255 218.737 424.765 186.812 425.379 180.626C427.475 179.997 432.214 178.011 433.021 172.85C433.602 169.117 444.701 157.616 451.529 151.246L451.324 150.992C454.999 148.121 466.428 139.073 472.093 133.262C473.851 131.459 475.596 129.656 477.42 127.938C479.615 125.86 482.404 122.558 483.138 118.656C483.388 117.368 483.39 116.039 483.142 114.75C482.894 113.462 482.402 112.241 481.697 111.163Z" fill="black"/>
<path d="M422.564 179.721C422.286 179.516 415.702 174.476 412.404 168.41C408.98 162.112 421.314 149.79 421.447 149.252L422.769 150.702C421.929 154.038 412.325 162.614 414.711 166.997C417.718 172.532 424.051 177.374 424.117 177.424L422.564 179.721Z" fill="#353146"/>
<path d="M449.367 150.956L448.336 149.437C448.548 149.274 469.31 133.212 472.582 128.016L472.688 127.861L472.84 127.755C472.906 127.705 479.523 123.124 480.6 117.356C480.799 116.279 480.784 115.169 480.556 114.099C480.328 113.028 479.893 112.021 479.278 111.142L479.126 110.901V110.732C478.994 110.548 478.022 109.509 473.104 109.961L472.952 108.088C476.647 107.748 479.086 108.137 480.223 109.247C480.506 109.508 480.715 109.848 480.825 110.23C481.54 111.305 482.041 112.525 482.298 113.815C482.555 115.105 482.562 116.437 482.319 117.73C481.585 121.64 478.802 124.941 476.601 127.012C474.783 128.73 473.032 130.547 471.28 132.336C464.637 139.143 450.095 150.398 449.367 150.956Z" fill="#E8F5FF"/>
<path d="M316.65 285.987L314.898 286.022L315.094 297.409L316.845 297.374L316.65 285.987Z" fill="#E8F5FF"/>
<path d="M314.753 287.713C321.817 287.713 327.543 281.589 327.543 274.034C327.543 266.479 321.817 260.355 314.753 260.355C307.689 260.355 301.962 266.479 301.962 274.034C301.962 281.589 307.689 287.713 314.753 287.713Z" fill="#587EEC"/>
<path d="M314.753 285.395C320.62 285.395 325.375 280.308 325.375 274.034C325.375 267.76 320.62 262.674 314.753 262.674C308.886 262.674 304.131 267.76 304.131 274.034C304.131 280.308 308.886 285.395 314.753 285.395Z" fill="#E8F5FF"/>
<path d="M372.366 361.122C371.483 361.123 370.601 361.074 369.722 360.973C357.348 361.753 345.157 357.486 335.608 349.033C323.049 337.722 315.923 319.441 314.456 294.677L317.1 294.5C318.514 318.465 325.309 336.089 337.313 346.877C351.974 360.061 369.418 358.188 369.59 358.188H369.736H369.881C372.761 358.585 375.688 358.283 378.443 357.304C381.199 356.325 383.713 354.694 385.798 352.533C397.822 340.564 401.424 312.697 400.876 297.943C400.215 281.323 405.827 233.76 412.509 224.329C418.359 216.065 421.988 178.817 422.028 178.442L422.127 177.382L423.105 177.198C423.165 177.198 428.876 176.038 429.59 171.472C430.515 165.519 447.107 149.959 448.991 148.199L450.716 150.32C443.861 156.682 432.763 168.191 432.208 171.931C431.401 177.106 426.662 179.085 424.573 179.707C423.912 185.9 420.428 217.818 414.658 226.012C408.748 234.361 402.859 280.213 403.52 297.809C404.088 313.064 400.274 341.964 387.603 354.576C383.522 358.809 378.051 361.16 372.366 361.122Z" fill="#353146"/>
<g opacity="0.1">
<path opacity="0.1" d="M479.932 72.4297C481.016 68.1456 482.325 63.8333 483.237 59.4927C482.147 63.8545 480.831 68.1456 479.932 72.4297Z" fill="black"/>
<path opacity="0.1" d="M468.874 106.094C467.552 102.991 468.259 99.3993 468.285 95.9919C468.312 92.5844 467.135 88.5973 464.068 87.6429C457.934 85.812 453.704 98.0491 447.675 95.8364C443.048 94.1468 444.271 86.6462 441.601 82.3126C439.492 78.8769 435.268 77.9155 431.989 75.7664C424.996 71.1784 425.208 63.8403 421.969 56.8982C418.564 49.6167 411.392 51.7658 405.153 56.064C400.413 59.3301 396.335 63.706 391.271 66.3146C386.889 68.5697 381.964 69.3898 377.106 69.51C371.19 69.6584 364.752 68.5344 360.686 63.9393C357.553 60.4046 356.423 55.2228 357.071 50.3661C356.958 50.6983 356.859 51.0306 356.76 51.3629C355.174 56.9265 356.099 63.4657 359.807 67.6931C363.873 72.2882 370.311 73.4052 376.227 73.2638C381.092 73.1436 386.01 72.3236 390.399 70.0685C395.475 67.4528 399.554 63.0839 404.28 59.8179C410.52 55.5197 417.698 53.3706 421.096 60.652C424.335 67.5942 424.13 74.9322 431.117 79.5202C434.422 81.641 438.619 82.6308 440.735 86.0665C443.379 90.4141 442.209 97.9006 446.809 99.5902C452.831 101.796 457.062 89.5658 463.196 91.3968C466.263 92.3158 467.446 96.3454 467.413 99.7457C467.38 103.146 466.692 106.744 468.001 109.848C473.084 109.6 479.371 108.434 480.845 103.203C481.048 102.452 481.141 101.672 481.122 100.891C478.974 104.857 473.448 105.875 468.874 106.094Z" fill="black"/>
</g>
<path opacity="0.1" d="M588.338 280.284L596.012 288.965C596.012 288.965 602.153 336.803 605.22 341.278C608.287 345.753 615.532 363.554 608.73 376.922C608.73 376.922 606.536 384.196 607.851 387.243C609.166 390.29 597.989 405.539 597.989 405.539C597.989 405.539 583.294 419.607 580.221 421.721C577.147 423.834 560.926 440.716 555.446 440.949C549.966 441.183 548.175 448.457 548.175 448.457L517.253 449.631C517.253 449.631 500.173 448.676 496.458 451.257C496.458 451.257 498.441 423.347 479.358 405.051L503.696 395.67C503.696 395.67 512.91 391.428 515.759 386.996C517.552 384.279 520.094 382.229 523.03 381.135C523.03 381.135 529.826 375.975 530.044 373.161C530.262 370.348 538.353 366.898 538.353 366.898L533.772 325.082L536.184 255.661C536.184 255.661 543.859 197.494 560.087 200.781C576.314 204.069 588.338 280.284 588.338 280.284Z" fill="black"/>
<path d="M590.982 280.284L598.656 288.965C598.656 288.965 604.797 336.803 607.864 341.278C610.931 345.753 618.176 363.554 611.374 376.922C611.374 376.922 609.186 384.196 610.501 387.243C611.817 390.29 600.632 405.539 600.632 405.539C600.632 405.539 585.938 419.607 582.865 421.721C579.791 423.834 563.57 440.716 558.09 440.949C552.61 441.183 550.819 448.457 550.819 448.457L519.897 449.631C519.897 449.631 502.803 448.676 499.102 451.257C499.102 451.257 501.085 423.347 482.001 405.051L506.34 395.67C506.34 395.67 515.554 391.428 518.403 386.996C520.195 384.279 522.738 382.229 525.674 381.135C525.674 381.135 532.469 375.975 532.687 373.161C532.906 370.348 540.996 366.898 540.996 366.898L536.416 325.082L538.828 255.661C538.828 255.661 546.503 197.494 562.73 200.781C578.958 204.069 590.982 280.284 590.982 280.284Z" fill="#E8F5FF"/>
<path opacity="0.1" d="M562.453 350.412C562.453 350.412 585.039 344.05 590.962 351.826C596.885 359.602 562.453 350.412 562.453 350.412Z" fill="black"/>
<path opacity="0.1" d="M557.191 361.08C564.865 366.827 588.549 367.06 588.549 367.06L557.191 361.08Z" fill="black"/>
<path opacity="0.1" d="M568.812 389.81C569.473 390.043 585.092 407.872 591.649 402.478C598.207 397.084 568.812 389.81 568.812 389.81Z" fill="black"/>
<path opacity="0.1" d="M358.452 240.179C358.452 240.179 363.04 273.956 360.779 287.713C358.519 301.471 366.768 318.515 366.768 318.515L358.452 240.179Z" fill="black"/>
<path d="M256.895 253.915C251.607 258.347 247.747 268.838 244.951 280.368C240.072 300.481 238.479 323.803 238.479 323.803C238.479 323.803 196.373 313.481 199.44 308.794C201.37 305.847 198.779 283.635 196.618 267.53C195.329 258.015 194.179 250.628 194.179 250.628C194.179 250.628 271.371 241.713 256.895 253.915Z" fill="#FFB0B1"/>
<path opacity="0.1" d="M256.895 252.975C251.607 257.414 247.747 267.898 244.951 279.428C236.562 282.153 227.639 282.398 219.13 280.139C210.621 277.88 202.842 273.201 196.618 266.597C195.329 257.075 194.179 249.687 194.179 249.687C194.179 249.687 271.371 240.78 256.895 252.975Z" fill="black"/>
<path d="M279.528 227.708C279.532 240.004 275.469 251.905 268.058 261.306C260.646 270.706 250.364 276.999 239.032 279.071C227.699 281.143 216.046 278.86 206.136 272.627C196.226 266.394 188.697 256.612 184.881 245.013C181.066 233.414 181.211 220.745 185.29 209.249C189.368 197.753 197.118 188.171 207.168 182.198C217.218 176.226 228.919 174.248 240.201 176.615C251.483 178.983 261.618 185.542 268.813 195.133C275.746 204.371 279.526 215.862 279.528 227.708Z" fill="#FFB0B1"/>
<path opacity="0.1" d="M317.919 553.296H304.038L302.868 527.076L301.645 499.936C301.645 499.936 304.798 499.434 309.822 498.685L311.851 498.395H312.016C313.114 503.902 314.198 509.558 315.242 515.206C316.98 525.234 317.885 535.406 317.946 545.605C317.946 546.311 317.946 547.018 317.946 547.683C317.985 549.57 317.946 551.458 317.919 553.296Z" fill="black"/>
<path d="M315.255 553.296H141.172C141.926 551.465 142.428 550.355 142.428 550.355C142.428 550.355 156.356 485.19 163.435 457.619C163.437 457.596 163.437 457.572 163.435 457.548C164.32 453.803 165.387 450.11 166.634 446.485C166.715 446.238 166.819 446.001 166.945 445.778C170.448 439.684 174.837 433.117 168.697 423.736C162.556 414.354 164.731 373.076 164.731 373.076C164.731 373.076 172.187 337.892 180.079 319.13C181.277 316.224 182.977 313.585 185.09 311.354C185.777 310.635 186.51 309.969 187.284 309.36C187.873 308.887 188.486 308.45 189.122 308.052L189.247 307.967C192.563 305.957 196.245 304.734 200.042 304.383C202.739 304.082 205.462 304.162 208.139 304.623C220.936 306.631 231.182 309.989 239.325 313.814C261.396 324.184 268.079 338.083 268.211 338.373L268.264 338.493C269.15 340.706 282.106 373.055 286.773 388.148C287.982 392.079 288.643 394.843 288.379 395.599C287.057 399.346 298.466 446.251 298.466 446.251C298.466 446.251 303.754 468.874 309.042 495.391C309.273 496.494 309.491 497.596 309.703 498.713C310.648 503.528 311.587 508.434 312.492 513.333C314.247 523.429 315.152 533.674 315.196 543.943C315.293 547.143 315.313 550.261 315.255 553.296Z" fill="#EB5569"/>
<path opacity="0.1" d="M199.004 288.251C199.004 288.251 186.993 283.302 187.139 290.81C187.284 298.318 190.067 301.909 189.188 303.005C188.309 304.1 189.624 310.668 189.624 310.668C189.624 310.668 205.852 310.668 213.308 314.259C220.764 317.85 248.249 325.047 251.759 327.238C255.269 329.43 268.284 339.256 268.284 339.256L269.454 320.65C269.454 320.65 256.003 308.766 233.932 302.672C211.86 296.578 199.004 288.251 199.004 288.251Z" fill="black"/>
<path d="M199.004 287.31C199.004 287.31 186.993 282.362 187.139 289.87C187.284 297.377 190.067 300.969 189.188 302.064C188.309 303.16 189.624 309.727 189.624 309.727C189.624 309.727 205.852 309.727 213.308 313.326C220.764 316.924 248.249 324.114 251.759 326.298C255.269 328.483 268.284 338.316 268.284 338.316L269.467 319.766C269.467 319.766 256.016 307.882 233.945 301.789C211.874 295.695 199.004 287.31 199.004 287.31Z" fill="#EB5569"/>
<path opacity="0.1" d="M235.26 332.088C235.26 332.088 258.21 358.662 257.04 366.021C255.87 373.38 235.26 332.088 235.26 332.088Z" fill="black"/>
<path opacity="0.1" d="M197.979 428.083C197.979 428.083 181.157 444.661 176.199 445.601C171.242 446.541 180 449.666 185.698 447.171C191.396 444.675 203.545 438.108 203.545 438.108L197.979 428.083Z" fill="black"/>
<path d="M322.09 553.296H282.859C277.373 548.206 272.184 543.491 268.879 540.656C263.591 536.118 259.777 529.437 257.344 524.064C256.796 522.841 256.32 521.696 255.917 520.657C255.195 518.867 254.559 517.038 254.013 515.178L283.064 496.727C284.67 498.187 286.178 499.765 287.579 501.449L287.929 501.88C289.542 503.916 290.963 506.228 291.089 508.123C291.234 510.328 296.972 518.861 302.835 527.055C308.784 535.389 314.878 543.357 315.282 543.894C315.282 543.894 316.286 545.357 317.926 547.605C319.082 549.231 320.51 551.182 322.09 553.296Z" fill="#FFB0B1"/>
<path opacity="0.1" d="M268.813 195.133C267.418 198.498 266.169 201.99 265.984 205.737C265.462 216.553 266.308 240.737 255.11 246.167C249.565 248.839 243.629 242.971 237.547 242.83C233.172 242.731 229.159 245.7 226.489 249.412C223.818 253.123 222.159 257.527 220.222 261.726C218.459 265.538 216.429 269.201 214.148 272.684C213.466 273.75 212.715 274.763 211.9 275.717C205.072 272.635 198.992 267.928 194.123 261.953C189.254 255.978 185.725 248.893 183.804 241.238C181.883 233.583 181.621 225.561 183.038 217.781C184.456 210.002 187.515 202.671 191.982 196.348C196.45 190.024 202.208 184.875 208.818 181.292C215.429 177.709 222.716 175.787 230.126 175.672C237.536 175.558 244.873 177.254 251.577 180.631C258.282 184.009 264.177 188.978 268.813 195.161V195.133Z" fill="black"/>
<path d="M265.105 203.828C264.576 214.644 265.429 238.829 254.225 244.251C248.679 246.923 242.743 241.063 236.662 240.921C232.286 240.815 228.28 243.791 225.603 247.496C222.926 251.2 221.28 255.611 219.337 259.818C217.573 263.629 215.542 267.292 213.262 270.775C211.9 272.839 210.393 274.911 208.298 276.07C204.649 278.106 200.227 276.961 196.314 275.653C191.237 273.942 186.235 272.015 181.309 269.87C181.422 269.075 181.479 268.271 181.481 267.467C181.335 267.764 181.177 268.039 181.018 268.336L180.707 268.916C180.145 269.976 179.597 271.037 179.094 272.125C178.903 272.542 178.718 272.974 178.552 273.405C177.888 275.01 177.47 276.719 177.316 278.467C176.979 283.182 179.154 287.657 181.084 291.898C188.507 308.306 193.094 327.493 187.509 344.707C185.09 352.193 180.899 358.846 177.838 366.077C172.488 378.886 170.914 393.134 173.324 406.924C174.851 415.492 177.911 423.976 177.158 432.664C175.836 447.616 163.779 458.743 151.702 466.392C145.178 470.506 137.193 474.168 130.266 470.916C134.681 465.402 135.818 457.774 136.77 450.578C139.374 430.948 141.985 411.31 144.603 391.662C145.647 383.843 146.69 376.024 147.729 368.205C149.673 353.515 151.643 338.662 150.426 323.88C149.541 312.986 147.042 301.421 151.458 291.559C153.791 286.335 157.949 282.008 159.244 276.381C160.308 271.807 159.317 266.944 160.018 262.285C160.401 260.165 161.05 258.111 161.948 256.177C163.09 253.553 164.582 251.119 166.377 248.952C164.605 248.401 162.953 247.644 161.948 246.061C164.79 244.081 165.22 239.62 163.931 236.27C162.642 232.919 160.064 230.367 157.744 227.723C155.424 225.079 153.189 221.996 152.899 218.391C152.337 211.527 158.749 206.21 159.879 199.438C161.022 192.545 156.501 185.844 156.865 178.866C157.288 170.432 164.532 164.303 171.684 160.747C182.477 155.404 194.4 153.209 206.242 154.385C215.879 155.36 225.206 158.549 234.817 159.786C240.614 160.493 246.491 160.563 252.248 161.652C258.006 162.741 263.776 165.038 267.828 169.556C278.51 181.468 265.713 191.273 265.105 203.828Z" fill="#575A89"/>
<path opacity="0.1" d="M256.168 524.071C252.797 522.509 246.662 523.442 236.133 520.013C225.603 516.585 223.573 501.089 223.573 501.089V501.039C223.448 500.686 222.47 498.381 215.846 490.308C208.529 481.393 192.711 436.368 192.711 436.368C192.711 436.368 178.684 420.257 179.127 414.319C179.57 408.381 176.635 392.581 176.926 374.907C177.217 357.234 208.502 345.513 208.502 345.513C268.74 334.096 254.555 408.367 252.949 413.994C251.342 419.621 259.678 434.82 259.678 434.82C258.501 441.437 264.503 451.681 264.503 451.681C264.503 451.681 265.957 460.744 266.255 464.186C266.271 464.345 266.305 464.502 266.354 464.653C267.319 467.898 275.185 470.839 278.384 472.627C281.749 474.508 292.569 490.923 292.569 490.923C294.903 502.976 259.526 525.655 256.168 524.071Z" fill="black"/>
<path d="M257.92 521.243C254.555 519.674 248.414 520.614 237.891 517.178C227.368 513.743 225.332 498.261 225.332 498.261V498.211C225.213 497.851 224.228 495.553 217.605 487.48C210.287 478.565 194.469 433.533 194.469 433.533C194.469 433.533 180.443 417.429 180.879 411.491C181.315 405.553 178.394 389.753 178.685 372.093C178.975 354.434 210.241 342.72 210.241 342.72C270.479 331.303 256.294 405.574 254.687 411.201C253.081 416.829 261.416 432.028 261.416 432.028C260.24 438.645 266.242 448.888 266.242 448.888C266.242 448.888 267.696 457.951 268 461.394C268.011 461.553 268.042 461.71 268.093 461.861C269.058 465.105 276.924 468.046 280.129 469.835C283.487 471.708 294.315 488.13 294.315 488.13C296.661 500.162 261.284 522.841 257.92 521.243Z" fill="#EB5569"/>
<path opacity="0.1" d="M211.431 381.496C211.431 381.496 237.746 411.187 244.613 411.187C251.481 411.187 211.431 381.496 211.431 381.496Z" fill="black"/>
<path d="M257.919 521.243C254.555 519.674 248.414 520.614 237.891 517.179C227.368 513.743 225.332 498.261 225.332 498.261V498.211C232.305 493.263 249.968 479.287 256.928 474.176C261.826 470.591 265.825 465.325 268.165 461.832C269.13 465.077 276.996 468.018 280.202 469.807C283.56 471.68 294.387 488.102 294.387 488.102C296.661 500.163 261.284 522.841 257.919 521.243Z" fill="#FF748E"/>
<g opacity="0.1">
<path opacity="0.1" d="M161.987 246.138C162.02 246.195 162.067 246.244 162.106 246.301C162.305 246.032 162.51 245.764 162.721 245.509C162.496 245.744 162.25 245.954 161.987 246.138Z" fill="black"/>
<path opacity="0.1" d="M177.323 278.544C177.601 274.621 179.564 271.164 181.401 267.714C180.198 267.219 178.995 266.717 177.805 266.194C177.919 265.401 177.976 264.6 177.977 263.798C176.12 267.332 174.097 270.811 173.813 274.791C173.476 279.513 175.651 283.981 177.581 288.222C185.01 304.623 189.591 323.81 184.006 341.031C181.58 348.51 177.396 355.17 174.335 362.402C168.987 375.209 167.415 389.454 169.827 403.241C171.341 411.817 174.408 420.293 173.654 428.981C172.332 443.933 160.282 455.06 148.199 462.702C143.261 465.827 137.491 468.69 131.971 468.485C131.46 469.364 130.89 470.203 130.266 470.994C137.2 474.267 145.178 470.584 151.702 466.456C163.792 458.821 175.869 447.722 177.191 432.742C177.944 424.054 174.877 415.577 173.357 407.002C170.944 393.217 172.511 378.972 177.852 366.162C180.892 358.938 185.123 352.271 187.522 344.792C193.108 327.571 188.52 308.384 181.097 291.983C179.174 287.713 176.986 283.267 177.323 278.544Z" fill="black"/>
<path opacity="0.1" d="M267.815 169.641C267.165 168.927 266.466 168.266 265.726 167.661C273.737 178.774 262.17 188.219 261.595 200.18C261.079 210.996 261.925 235.188 250.721 240.603C245.182 243.282 239.239 237.415 233.165 237.273C228.782 237.174 224.777 240.151 222.099 243.855C219.422 247.559 217.776 251.971 215.84 256.17C214.073 259.98 212.04 263.643 209.758 267.127C208.436 269.199 206.89 271.263 204.788 272.429C201.152 274.458 196.73 273.32 192.81 272.005C188.998 270.723 185.222 269.309 181.481 267.764C181.473 268.5 181.415 269.235 181.309 269.962C186.24 272.111 191.244 274.039 196.32 275.745C200.233 277.06 204.655 278.198 208.298 276.169C210.393 275.003 211.913 272.931 213.268 270.86C215.552 267.381 217.582 263.72 219.343 259.909C221.286 255.71 222.926 251.292 225.609 247.588C228.293 243.883 232.292 240.914 236.668 241.013C242.749 241.154 248.692 247.022 254.231 244.343C265.435 238.928 264.582 214.736 265.105 203.92C265.713 191.344 278.51 181.545 267.815 169.641Z" fill="black"/>
</g>
<path opacity="0.1" d="M180.714 268.923C180.152 269.983 179.603 271.044 179.101 272.132C178.909 272.55 178.724 272.981 178.559 273.412C175.095 269.679 166.661 260.807 161.954 258.057C163.099 255.434 164.59 253.001 166.383 250.832C166.383 250.832 177.6 257.174 180.714 268.923Z" fill="black"/>
<path d="M181.024 268.343C178.427 255.767 166.383 248.959 166.383 248.959C164.589 251.126 163.097 253.56 161.954 256.184C166.919 259.09 176.067 268.831 179.101 272.133L181.024 268.343Z" fill="#EB5569"/>
<defs>
<linearGradient id="paint0_linear_22_34" x1="482.556" y1="67.4385" x2="482.556" y2="54.445" gradientUnits="userSpaceOnUse">
<stop stop-color="#808080" stop-opacity="0.25"/>
<stop offset="0.54" stop-color="#808080" stop-opacity="0.12"/>
<stop offset="1" stop-color="#808080" stop-opacity="0.1"/>
</linearGradient>
<linearGradient id="paint1_linear_22_34" x1="303252" y1="465522" x2="303252" y2="32457.2" gradientUnits="userSpaceOnUse">
<stop stop-color="#808080" stop-opacity="0.25"/>
<stop offset="0.54" stop-color="#808080" stop-opacity="0.12"/>
<stop offset="1" stop-color="#808080" stop-opacity="0.1"/>
</linearGradient>
</defs>
</svg>
